<svg width="33" height="33" viewBox="0 0 33 33" fill="none" xmlns="http://www.w3.org/2000/svg">
<path d="M30 0H2C0.89543 0 0 0.89543 0 2V30C0 31.1046 0.89543 32 2 32H30C31.1046 32 32 31.1046 32 30V2C32 0.89543 31.1046 0 30 0Z" fill="#4460AE"/>
<g opacity="0.2">
<path d="M31.93 17.95L19.84 7.91998L14 10.12V23.92L23.98 32.04H30.88L32.02 30.99L31.93 17.95Z" fill="#080808"/>
</g>
<path d="M18 11H20V8H17.58C14.64 8.1 14.04 9.75001 13.98 11.49V13H11.98V16H13.98V24H16.98V16H19.45L19.93 13H17V12.08C16.9889 11.9421 17.0066 11.8034 17.0518 11.6727C17.0971 11.542 17.169 11.4221 17.263 11.3206C17.357 11.2191 17.471 11.1382 17.5979 11.083C17.7247 11.0278 17.8617 10.9996 18 11Z" fill="#DFDFDF"/>
</svg>
