<svg width="32" height="32" viewBox="0 0 32 32" fill="none" xmlns="http://www.w3.org/2000/svg">
<path d="M30 0H2C0.89543 0 0 0.89543 0 2V30C0 31.1046 0.89543 32 2 32H30C31.1046 32 32 31.1046 32 30V2C32 0.89543 31.1046 0 30 0Z" fill="#CFCFCF"/>
<g opacity="0.2">
<path d="M20.85 9.09998L18.4 9.70998L18.81 12.16L17.89 14.41L16.76 16.04L16.46 18.19L19.52 18.8L19.73 21.97L18.5 23.19L16.66 23.5L13.91 23.4L11.15 22.68L22.99 31.87H30.04L31.98 29.83V16.35L20.85 9.09998Z" fill="#080808"/>
</g>
<path d="M21 8.99997H16.87C15.5844 8.93351 14.3156 9.31523 13.28 10.08C12.8898 10.4025 12.5736 10.8052 12.3527 11.2607C12.1319 11.7162 12.0116 12.2139 12 12.72C12.006 13.1437 12.0978 13.5618 12.2697 13.9491C12.4417 14.3364 12.6902 14.6849 13.0004 14.9737C13.3106 15.2624 13.676 15.4853 14.0747 15.629C14.4733 15.7728 14.8969 15.8343 15.32 15.81C15.53 15.81 15.75 15.81 15.97 15.81C15.8461 16.0483 15.7777 16.3115 15.77 16.58C15.7929 17.0866 16.0074 17.5655 16.37 17.92C15.0408 17.9285 13.731 18.2397 12.54 18.83C12.0938 19.0579 11.7162 19.4002 11.4456 19.8218C11.1751 20.2435 11.0213 20.7294 11 21.23C11 22.69 12.4 24.04 15.3 24.04C18.75 24.04 20.58 22.17 20.58 20.32C20.55 19.757 20.3796 19.2105 20.0845 18.7302C19.7893 18.2499 19.3787 17.8511 18.89 17.57L18.17 17.01C18.0216 16.9227 17.8968 16.8006 17.8062 16.6543C17.7156 16.5079 17.662 16.3417 17.65 16.17C17.6681 15.9734 17.7273 15.7828 17.8238 15.6105C17.9203 15.4382 18.0519 15.2882 18.21 15.17C18.6944 14.9104 19.1032 14.5297 19.3967 14.065C19.6901 13.6004 19.8581 13.0676 19.8843 12.5186C19.9104 11.9697 19.7939 11.4234 19.5461 10.9329C19.2982 10.4424 18.9275 10.0245 18.47 9.71997H19.71L21 8.99997ZM19.23 21.05C19.23 22.27 18.23 23.18 16.29 23.18C14.14 23.18 12.76 22.18 12.76 20.78C12.7951 20.3065 12.9812 19.8568 13.2907 19.4968C13.6003 19.1368 14.0171 18.8856 14.48 18.78C15.166 18.5802 15.8756 18.4726 16.59 18.46C16.7431 18.4491 16.8969 18.4491 17.05 18.46C18.58 19.51 19.24 20.05 19.24 21.05H19.23ZM17.63 14.71C17.2627 15.059 16.7766 15.2555 16.27 15.26C14.54 15.26 13.76 13.08 13.76 11.76C13.7323 11.2369 13.8879 10.7206 14.2 10.3C14.3749 10.0997 14.5899 9.93837 14.831 9.8264C15.0722 9.71444 15.3342 9.65432 15.6 9.64997C17.27 9.64997 18.13 11.86 18.13 13.27C18.1627 13.7958 17.9866 14.3132 17.64 14.71H17.63ZM25 12V9.99997H24V12H22V13H24V15H25V13H27V12H25Z" fill="#252629"/>
</svg>
