<svg width="33" height="32" viewBox="0 0 33 32" fill="none" xmlns="http://www.w3.org/2000/svg">
<path d="M30 0H2C0.89543 0 0 0.89543 0 2V30C0 31.1046 0.89543 32 2 32H30C31.1046 32 32 31.1046 32 30V2C32 0.89543 31.1046 0 30 0Z" fill="#058CB9"/>
<g opacity="0.2">
<path d="M31.92 15.91L24.69 10.14C24.69 10.14 22.6 16.61 18.99 19.44C15.72 22.01 10.2 21.88 10.2 21.88L22.87 32H30.05L32.05 30L31.92 15.91Z" fill="black"/>
</g>
<path d="M25.56 11.56C24.9837 11.8353 24.365 12.0111 23.73 12.08C24.3737 11.6507 24.8586 11.0218 25.11 10.29C24.4806 10.672 23.7795 10.9204 23.05 11.02V11.02C22.5949 10.542 22.007 10.2115 21.3622 10.071C20.7173 9.93063 20.0452 9.98678 19.4326 10.2323C18.8199 10.4777 18.295 10.9013 17.9256 11.4481C17.5561 11.995 17.3591 12.64 17.36 13.3C17.3597 13.5494 17.39 13.7979 17.45 14.04V14.04C16.1077 13.9921 14.7906 13.6619 13.5845 13.0709C12.3784 12.4799 11.3104 11.6414 10.45 10.61C10.0411 11.3301 9.91691 12.1773 10.102 12.9845C10.2872 13.7916 10.7681 14.5001 11.45 14.97C10.9411 15.0245 10.4296 14.8931 10.01 14.6C9.98532 15.3528 10.2278 16.09 10.6945 16.6812C11.1612 17.2723 11.822 17.6793 12.56 17.83C12.1179 17.9894 11.6405 18.0239 11.18 17.93C11.3693 18.5687 11.7575 19.1303 12.2881 19.5332C12.8186 19.9361 13.4639 20.1591 14.13 20.17C13.5232 20.7318 12.796 21.1474 12.0038 21.3849C11.2117 21.6223 10.3758 21.6754 9.56 21.54C11.1179 22.4891 12.9058 22.994 14.73 23C15.9803 23.0113 17.2196 22.7665 18.3717 22.2807C19.5238 21.7949 20.5642 21.0783 21.4289 20.1752C22.2936 19.2721 22.9642 18.2016 23.3995 17.0295C23.8348 15.8574 24.0256 14.6086 23.96 13.36V13.25C24.6062 12.8054 25.1514 12.2295 25.56 11.56V11.56Z" fill="#DFDFDF"/>
</svg>
