<svg width="45" height="57" viewBox="0 0 45 57" fill="none" xmlns="http://www.w3.org/2000/svg">
<path d="M37.67 38C40.6545 35.0824 42.7019 31.3416 43.5509 27.2552C44.3999 23.1688 44.012 18.9221 42.4367 15.0571C40.8614 11.1922 38.1701 7.88426 34.7064 5.55566C31.2427 3.22707 27.1637 1.9834 22.99 1.9834C18.8163 1.9834 14.7373 3.22707 11.2736 5.55566C7.8099 7.88426 5.11862 11.1922 3.5433 15.0571C1.96798 18.9221 1.58007 23.1688 2.42907 27.2552C3.27808 31.3416 5.3255 35.0824 8.31 38V38C14.31 44 17.01 56 23.01 56C29.01 56 31.71 44 37.71 38H37.67Z" stroke="#fff" stroke-width="2" stroke-linecap="round" stroke-linejoin="round"/>
<path d="M20 46H26" stroke="#fff" stroke-width="2" stroke-linecap="round" stroke-linejoin="round"/>
<path d="M38 26C38 30 36 36 26 36C26 30 28 26 38 26Z" stroke="#fff" stroke-width="2" stroke-linecap="round" stroke-linejoin="round"/>
<path d="M8 26C8 30 10 36 20 36C20 30 18 26 8 26Z" stroke="#fff" stroke-width="2" stroke-linecap="round" stroke-linejoin="round"/>
</svg>
